# xmcd CD database file
#
# Track frame offsets:
#	150
#	36850
#	78042
#	117527
#	173647
#	229470
#
# Disc length: 3620 seconds
#
# Revision: 0
# Processed by: cddbd v1.5.1PL0 Copyright (c) Steve Scherf et al.
# Submitted via: CDex 1.51
#
DISCID=440e2206
DTITLE=Junior Mance - Live at Good Day Club
DYEAR=1900
DGENRE=Jazz
TTITLE0=SMALL FRY
TTITLE1=NO GREATER LOVE
TTITLE2=EMILY
TTITLE3=SUMMERTIME
TTITLE4=SMOKEY BLUES
TTITLE5=SOMETHING
EXTD=
EXTT0=
EXTT1=
EXTT2=
EXTT3=
EXTT4=
EXTT5=
PLAYORDER=
